<?xml version="1.0" encoding="utf-8"?>
<!-- Generator: Adobe Illustrator 28.0.0, SVG Export Plug-In . SVG Version: 6.00 Build 0)  -->
<svg version="1.1" id="Layer_1" xmlns="http://www.w3.org/2000/svg" xmlns:xlink="http://www.w3.org/1999/xlink" x="0px" y="0px"
	 viewBox="0 0 740.8 211.4" style="enable-background:new 0 0 740.8 211.4;" xml:space="preserve">
<style type="text/css">
	.st0{fill:#C792C1;}
	.st1{fill:#B5CB83;}
	.st2{fill:#FEFAD8;}
	.st3{fill:#B8B7A0;}
</style>
<path class="st0" d="M85.4,35.2c5.2,0,4.7,7.9-0.5,7.9H55.4c1.5,18.5,1,83.2,1.7,103.8c0.3,8.9-24.9,4.9-25.2-2.5
	c-0.5-9.2,3.5-27.4,5.7-46.8C39.6,78.2,40,57.7,32.1,44C32,43.8,32,43.6,32,43.5H3.9c-5.2,0-5.2-8.2,0-8.2h10c23.6,0,47,0,70.6,0
	L85.4,35.2L85.4,35.2z"/>
<path class="st0" d="M226.5,68.5c2.3,2.5-3,7.8-5.3,5.8c-2.8-2.3-6-4.7-9.9-6.7c-0.5-0.3-1-0.7-1.5-1c-0.5-0.2-1-0.3-1.5-0.5
	s-1-0.3-1.5-0.5s-1-0.3-1.5-0.5c-2.2-0.7-4.7-1.2-7.2-1.2s-5,0.7-7.2,1.8c-2.3,1.2-4.3,3-6,5c-0.8,1-1.5,2.2-2.2,3.3
	s-1.2,2.3-1.7,3.7s-0.8,2.7-1.2,4v3.8c0,3,0.2,6.2,0.3,9.5c0,2,0.2,4.2,0.3,6.3h21.1c5.2,0,5.2,8.2,0,8.2H181
	c0.3,5.8,0.7,11.9,1,18.2c1,16,2,33.9,3,53.8c0.5,9-21.4,11.7-22.7,7c-0.5-2-0.8-10.9-0.8-23.6s0.2-29.2,0.8-46.8
	c0.2-2.7,0.3-5.5,0.5-8.4h-12c-5.2,0-5.2-8.2,0-8.2h12.5c0.2-3.5,0.3-7,0.7-10.5l0.5-3.5c0.2-1.2,0.3-2.3,0.5-3.5
	c0-0.7,0.2-1.3,0.3-2v-1.2l0.3-1.3c0.5-1.7,1-3,1.5-4.3c1.1-2.8,2.5-5.4,4.2-7.8c1.7-2.5,3.5-4.8,5.8-7s5-4,8-5.3s6.3-2.2,9.7-2.3
	c3.3-0.3,6.5,0,9.2,0.7c1.3,0.3,2.5,0.8,3.7,1.3s2.3,1,3.3,1.5c4.2,2.2,7.3,4.5,10,6.7c0.7,0.5,1.2,1,1.8,1.5c0.5,0.5,1.2,1,1.7,1.5
	l2.8,2.8L226.5,68.5L226.5,68.5z"/>
<path class="st0" d="M296.3,68c2.3,4.2,1.7,63.3,2.5,80.5c0.3,6.7-24.9,3.7-25.2-1.8c-0.2-3.3,0.7-8.2,1.8-13.9
	c-2.3,2.5-4.9,4.9-7.4,6.9c-7.5,6.2-18.9,11.9-27.4,4c-6.5-6-7.7-16.7-8.4-24.9c-1.5-16.2-0.2-32.9,2.2-49.1c0.7-5.2,8.5-3,7.9,2
	v-0.5v1c-0.2,1.3-0.3,2.7-0.5,4c-0.5,3.8-0.8,7.8-1.2,11.9c-0.7,9.5-1,19-0.3,28.6c0.5,6.5,0.8,16.2,5.7,21.2
	c5.9,6,15.5-2.5,19.9-6.9c3.3-3.3,6.4-7,9-10.9c1.2-1.7,2.3-3.3,3.3-5c0.3-0.5,0.7-1,1-1.5c2.3-15,3-31.2-5.2-42
	c-3.2-4.2,21.2-6,22.6-3.7L296.3,68L296.3,68z"/>
<path class="st1" d="M355.6,43.2c0.5,0.3,1.4,0.4,2.8,0.4c5,0,10.9,0.5,17.7,1.5l0.8,0.2c0.8,0,1.2-0.5,1.2-1.5
	c0-3.2-0.1-5.3-0.3-6.2c-0.2-0.9-0.8-1.3-1.8-1.3c-1.1,0-2.8,0.3-5.2,0.8s-4.1,0.8-5.4,0.8c-1,0-1.7-0.3-2-0.9
	c-0.3-0.6-0.5-1.8-0.5-3.4l0.2-6c0-2.4,0.1-4,0.4-4.7s1.2-1,2.8-1s3.1-0.1,4.4-0.3c0.6,0,0.9,0.2,1.2,0.6c0.2,0.4,0.3,1.1,0.3,2.3
	c0,0.7-0.1,1.3-0.3,1.9c-0.2,0.6-0.9,0.9-2,0.9h-1.2c-0.8,0-1.2,0.3-1.2,0.8c0.1,0.2,0.2,0.4,0.2,0.5c0,0.1,0.1,0.3,0.1,0.6
	s0.1,0.6,0.2,0.9c0,0.9,0.7,1.3,2.2,1.3c2.7,0,4.7-0.6,6-1.8c2.1-1.9,3.3-4.7,3.7-8.5c0.5-2.2,0.8-3.6,0.8-4c0-1-0.6-1.5-1.7-1.5
	l-4.7,0.2c-2.5,0.5-6.5,0.7-12,0.7c-1.6,0-2.7,0.5-3.5,1.4c-0.8,1-1.4,2.8-1.9,5.6s-1,6.9-1.6,12.2l-0.5,5.5
	C354.8,42.3,355.1,43,355.6,43.2L355.6,43.2z"/>
<path class="st0" d="M380.2,146.4c-0.6-0.8-1.3-1.2-2.2-1.2c-0.7,0-1.5,0.1-2.5,0.3c-1.5,0.3-3.9,0.5-7.4,0.5c-1.1,0-1.8,0.3-2,0.8
	c-0.2,0.6-0.3,1.3-0.3,2.3c0,1.1,0.2,1.7,0.5,1.8s1.9,0.3,4.7,0.7c0.7,0,1.2-0.1,1.5-0.2c0.3-0.1,0.6-0.2,0.7-0.2s0.5,0.2,0.8,0.6
	c0.3,0.4,0.7,2.1,1.2,5.3c0.9,4,1.4,6.5,1.5,7.5c0,0.7-0.5,1.1-1.5,1.2c-2.2,0.4-3.6,0.7-4,0.7l-1.5-0.2c1.2-3.8,1.8-6.5,1.8-8.2
	c0-1.6-0.7-2.4-2-2.7c-1.3-0.2-3.7-0.3-7-0.3c-1.1,0-1.8,0.1-2.2,0.2s-0.5,0.7-0.5,1.6l0.2,2.8c0.3,2.2,0.6,5.9,0.7,10.9
	c0,1.2,0.4,2,1.1,2.3c0.7,0.3,2.9,0.4,6.6,0.4c3.7,0,7.5,0.1,11.5,0.2h0.5c2,0,3-0.9,3-2.7c0-1.4-0.3-4.7-1-9.9
	C381.7,152.6,381,147.7,380.2,146.4L380.2,146.4z"/>
<path class="st1" d="M389.2,108.8c-0.2-0.7-0.7-1-1.5-1h-2.1c-0.6,0-1.2,0.2-1.8,0.5c-0.6,0.3-0.8,2.3-0.8,6l0.2,11
	c0,0.8-0.2,1.5-0.5,2.1c-0.3,0.6-1,0.9-1.8,1c-0.9,0.1-1.7,0.2-2.5,0.4c-0.8,0.2-1.6,0.3-2.3,0.3c-1.6,0-3-1.2-4.2-3.7
	c-1.2-2.4-2.1-5.4-2.8-8.9c-0.6-3.4-0.9-6.6-0.9-9.5c0-4,0.8-7.7,2.3-11c0.8-1.2,1.8-2.1,3.2-2.5c1.3-0.4,2.6-0.7,3.7-0.8
	c1.1-0.1,1.9-0.2,2.4-0.4s0.8-0.4,1-0.8s0.2-0.7,0.2-1.2c0-0.5,0-1.1,0-1.6c-7.5,1.7-14.4,4.2-21,7.5c-1.9,1.9-3.4,4-4.6,6.2
	c-2.3,4.2-3.4,8.3-3.4,12.3c0,5.5,2,10.2,5.9,14.3c3.9,4.1,9.5,6.1,16.7,6.1c3.7,0,7.8-0.7,12.4-2c1.6-0.6,2.4-1.9,2.5-4l0.2-15.5
	C389.6,111.1,389.5,109.5,389.2,108.8L389.2,108.8z"/>
<path class="st0" d="M381,87.5c-0.1-0.9-0.5-1.4-1.2-1.4l-2.7,0.5c-1.6,0-2.8-0.6-3.8-1.7c-3.8-4.2-5.7-8.7-5.7-13.4
	c0-2.6,0.6-5.2,1.7-7.9s2.8-4.1,5.2-4.1c1.7,0.2,2.8,0.5,3.4,0.9c0.6,0.4,0.9,1.4,0.9,2.9l-0.3,4.7c0,1.1,0.2,2,0.8,2.8
	s1.5,1.1,2.9,1.1c1.1,0,1.9-0.2,2.3-0.6c0.4-0.4,0.7-1.4,0.7-3.1l-0.5-8.5c0-4-4.2-6-12.5-6c-4.5,0-8.2,1.1-11.3,3.3
	c-3.1,2.2-5.4,4.8-6.9,8c-1.5,3.2-2.3,6.4-2.3,9.6c0,4.5,1.3,7.9,4,10.4c2.7,2.5,6.1,4.6,10.4,6.3c-2.3,1.6-4.3,3.3-6,5.1
	c6.6-3.3,13.5-5.8,21-7.5C381,88.4,381,87.9,381,87.5L381,87.5z"/>
<path class="st1" d="M541.6,210.7c-0.3-0.4-5.5-9.4-15.4-26.7l-47.1-83.1c-4.7-7.9-7.6-12.7-8.7-14.4c-0.6-0.9-0.9-1.3-1.1-1.3
	s-0.3-0.1-0.4-0.2c0,28.6-0.2,47.2-0.7,55.8l-0.2,9.4c0,3.2,0.2,5,0.6,5.4c0.4,0.3,0.9,0.6,1.6,0.7s1,0.6,1,1.3
	c0,0.4-0.1,0.9-0.2,1.4s-0.2,1-0.2,1.4s-0.1,0.8-0.3,0.9s-1.5,0.2-3.7,0.2H443c-1.3,0-2.1-0.3-2.4-1c-0.3-0.7-0.5-1.4-0.5-2.1
	c-0.1-0.7-0.1-1.4-0.2-1.9c0-0.9,0.7-1.3,2-1.3l2.3,0.2c0.7,0,1.2-0.3,1.6-0.9s0.7-1.9,1-3.9s0.5-5,0.8-9s0.6-9.3,1-15.9
	c0.8-19.1,3.2-57,7.4-114c0-1.3-0.2-2.1-0.7-2.4s-1-0.4-1.5-0.4h-1.8c-0.9,0-1.3-0.4-1.3-1.3l0.2-1.7l-0.2-1.5
	c0-0.6,0.6-0.9,1.8-1.1c1.2-0.2,4.4-0.4,9.6-0.8l8.5-0.5c1.2,0,1.8,0.5,1.8,1.5c0,0.3,0.1,0.7,0.2,1.2c0.2,0.4,0.2,0.9,0.2,1.5
	c0,0.9-0.5,1.5-1.3,1.8c-0.3,0.1-0.6,0.5-0.8,1.1c-0.2,0.6-0.3,2.1-0.3,4.5c-0.1,2.4-0.1,9.4-0.2,21.1l-0.3,27.9
	c0,0.2,0,0.4,0.2,0.6c0.1,0.2,0.2,0.4,0.3,0.6c15.6-17.5,31-35.1,46.5-52.8c-0.2-0.6-0.9-0.9-1.9-1.1s-1.6-0.5-1.6-1.1
	c0.3-1.3,0.9-2.5,1.7-3.3c0.8-0.9,1.8-1.3,3-1.3l1.8,0.3c2.8,0.8,5.7,1.4,8.7,1.8l4.8,1c-0.3,0.7-0.6,1.4-0.8,2.2
	c-0.2,0.8-0.5,1.6-1,2.3s-1.5,1.3-2.9,1.5c-0.6,0-1.3,0.7-2.2,2.1S514.7,28.1,494,49.3c-10.7,10.9-16.8,17.4-18.4,19.4
	c-1,1.3-1.5,2.3-1.5,3c0,0.6,0.2,1.1,0.7,1.5l21.6,36.6l51.3,87.6c0.9,1.4,1.7,2.2,2.3,2.2c1.1,0,3.2-1.1,6.4-3.3
	c2.5-1.8,6.2-4.2,11.2-7.2c0.8-0.4,1.3-0.9,1.7-1.4s0.5-1.2,0.5-2.1l-0.2-2.3c-0.2-1.4-0.3-3.7-0.3-6.7c0-0.8-0.1-1.3-0.3-1.5
	c-0.3-0.3-0.6-0.3-1.2-0.3c-5.9,0.3-9.4,2.3-10.5,5.9c-0.4,1.1-1,1.7-1.7,1.7c-1.1,0-3.3-1.1-6.7-3.2c2.1-4.2,3.8-7.2,5.1-8.9
	c1.3-1.7,2.9-2.7,4.8-3c1.9-0.3,6.8-0.6,14.7-0.7c2.6,0,4.3,0.3,5.3,0.8c1,0.6,1.4,1.9,1.4,4.2c0,1.9-0.2,4.5-0.6,7.9
	c-0.4,3.4-0.8,7.8-1.2,13.3c0,1.2-0.7,2.2-2,2.8c-7.2,3.7-13.1,6.7-17.5,9c-4.5,2.3-7.9,4.1-10.2,5.2c-2.3,1.1-4.1,1.7-5.2,1.7
	C542.5,211.4,542,211.2,541.6,210.7L541.6,210.7z"/>
<path class="st1" d="M538.2,137c-0.8-0.1-1.4-0.1-1.6-0.2c-0.2-0.1-0.3-0.4-0.3-0.8v-0.8c0-0.3,0.1-0.6,0.2-0.9
	c0.2-0.3,0.7-0.5,1.6-0.5l1.8,0.2c0.4,0,0.9-0.3,1.4-0.9s1-3.7,1.6-9.3l1.2-11.7c2.3-23.4,4.1-38.9,5.2-46.5
	c0.4-2.6,0.7-4.5,0.7-5.7c0-0.8-0.1-1.3-0.4-1.6c-0.3-0.3-0.7-0.4-1.2-0.4l-1.7,0.2c-1.3,0-2.5-1.1-3.6-3.3
	c-1.1-2.2-2.1-4.7-3.1-7.4l-2.2-5.5c0-0.3,0.7-0.9,2.1-1.6c1.4-0.7,4.3-2,8.8-3.9c5.7-2.3,9-3.6,9.9-3.8c1.2,0,2.5,0.9,3.8,2.7
	c1.3,1.8,3.6,3.9,7.1,6.3c0.3,0.2,0.5,0.4,0.5,0.5c-0.1,0.2-0.2,0.4-0.4,0.6s-0.3,0.2-0.4,0.2c-2.3,1.3-4,2.3-4.9,3
	c-1,0.7-1.7,1-2.1,1c-0.6,0-1.2-0.3-2-0.9c-0.8-0.6-1.2-1.2-1.2-1.8c0-0.3,0.2-0.8,0.8-1.2s0.8-0.9,0.9-1.2c0-0.3-0.3-0.7-0.9-1.1
	c-0.6-0.4-1.3-0.7-2-0.9c-0.7-0.2-1.4-0.3-1.9-0.3c-1.2,0-2.6,0.5-4.2,1.5s-2.7,1.9-3.3,2.8c-0.7,0.8-1,1.6-1,2.3
	c0,0.8,0.2,1.6,0.7,2.4c0.4,0.8,0.7,1.7,0.8,2.6c0.1,1.7,0.6,2.8,1.5,3.3c0.9,0.5,2,0.8,3.2,0.8l5.7-0.3c1.2,0,2,0.2,2.3,0.7
	c0.3,0.4,0.4,0.9,0.5,1.2s0.1,0.6,0.1,0.8c0,0.6-0.6,0.8-1.7,0.8h-1.7c-0.8,0-1.4,0.2-1.8,0.7c-0.4,0.4-0.6,1.3-0.6,2.7
	c0,2.1,0.3,5.7,1,10.7c1.2,9.5,2.7,29,4.3,58.7c0.1,1.9,1.1,2.8,2.8,2.8l2.7-0.2c1.6,0,2.3,0.7,2.3,2.2c0,0.4-0.1,0.8-0.2,1
	c-0.2,0.2-0.6,0.4-1.2,0.4c-0.7,0.1-5.6,0.1-14.7,0.1S539.1,137,538.2,137"/>
<path class="st1" d="M648.4,108.1c-2.9-16.4-5.1-27.7-6.5-34.1h-0.5c-0.2,0.2-0.5,0.7-0.8,1.3c-1.1,2.1-3.4,7.1-6.8,14.9l-24.4,56.3
	c-0.1,0.2-0.3,0.6-0.6,1c-0.3,0.4-0.4,0.9-0.4,1.5c0,0.7,0.7,1.1,2.2,1.3c0.3,0.2,0.5,0.6,0.5,1.2c-0.1,2.3-0.2,3.6-0.3,3.8
	c-0.4,0.6-1.9,1-4.5,1.2s-5.4,0.4-8.4,0.4c-0.7,0-1-0.2-1.1-0.7c-0.1-0.5-0.2-1-0.4-1.5c-0.2-0.6-0.3-1.2-0.3-1.8
	c0-0.8,0.5-1.4,1.5-2h0.2l0.3-0.2v-0.7c0-2-2.5-15.8-7.4-41.4l-13-69.3c-0.8-5.2-1.5-8.4-2.2-9.4c-0.3-0.4-0.8-0.7-1.3-0.7l-1.8,0.2
	c-1.5,0-2.2-0.8-2.3-2.5c0-1,0.1-1.8,0.4-2.4c0.3-0.6,1-1,2.3-1.2c7.9-1,13.6-1.8,17.1-2.4c3.4-0.6,5.7-0.9,6.8-0.9
	c0.6,0,0.9,0.1,1.1,0.2c0.2,0.2,0.2,0.5,0.2,0.9s0.2,1,0.5,1.5c0.3,0.6,0.5,1.2,0.5,1.8s-0.6,1.2-1.7,1.7c-0.2,0.1-0.3,1.1-0.3,2.8
	c0,5.2,0.6,15.6,1.9,31.1c1.3,15.5,2.7,30.7,4.3,45.5s2.9,25,4.2,30.3c2.1-4.6,5.2-11.4,9.2-20.6s8-18.3,11.9-27.2
	c3.9-9,6.7-15.4,8.4-19.3c0.1-0.2,0.2-0.5,0.4-0.8c0.2-0.3,0.3-0.6,0.5-0.8c0.2-0.3,0.2-0.6,0.2-0.9c0-0.8-0.8-1.2-2.3-1.2
	c-0.6,0-0.8-0.4-0.8-1.2v-2.7c0-0.7,0.3-1.2,1-1.7c1.1-0.7,5.4-1.1,12.9-1.3c1,0,1.7,0.4,2,1.1c0.3,0.7,0.6,1.5,0.7,2.4V62
	c1.8,15.2,3.9,30.3,6.5,45.5l8.2,53h0.5l25.4-135.2c1.7-9.5,2.5-15.6,2.5-18.4l-0.3-0.5c-0.7,0-1.1-0.1-1.3-0.2
	c-0.8-0.2-1.4-1.6-1.8-4c0-0.8,0.2-1.2,0.6-1.4c0.4-0.2,1.1-0.3,2.3-0.4l13-0.3c0.3,0.1,0.5,0.4,0.5,0.8c0,2.1-0.1,3.4-0.2,3.9
	s-0.5,0.9-0.9,1.1h-0.7c-0.6,0.6-1.1,1.9-1.5,4l-0.8,3.7L692.1,67c-13.9,69.8-20.9,105.2-21,106.2c-0.1,0.9-1.2,2.3-3.6,4.1
	c-1,0.7-1.8,1.2-2.5,1.5l-1.2,0.7C660.9,173.8,655.8,150,648.4,108.1L648.4,108.1z"/>
<path class="st1" d="M709.2,137c-0.8-0.1-1.4-0.1-1.6-0.2c-0.2-0.1-0.3-0.4-0.3-0.8v-0.8c0-0.3,0.1-0.6,0.2-0.9
	c0.2-0.3,0.7-0.5,1.6-0.5l1.8,0.2c0.4,0,0.9-0.3,1.4-0.9s1-3.7,1.6-9.3l1.2-11.7c2.3-23.4,4.1-38.9,5.2-46.5
	c0.4-2.6,0.7-4.5,0.7-5.7c0-0.8-0.1-1.3-0.4-1.6c-0.3-0.3-0.7-0.4-1.2-0.4l-1.7,0.2c-1.3,0-2.5-1.1-3.6-3.3
	c-1.1-2.2-2.1-4.7-3.1-7.4l-2.2-5.5c0-0.3,0.7-0.9,2.1-1.6c1.4-0.7,4.3-2,8.8-3.9c5.7-2.3,9-3.6,9.9-3.8c1.2,0,2.5,0.9,3.8,2.7
	c1.3,1.8,3.6,3.9,7.1,6.3c0.3,0.2,0.5,0.4,0.5,0.5c-0.1,0.2-0.2,0.4-0.4,0.6s-0.3,0.2-0.4,0.2c-2.3,1.3-4,2.3-4.9,3
	c-0.9,0.7-1.6,1-2.1,1c-0.6,0-1.2-0.3-2-0.9c-0.8-0.6-1.2-1.2-1.2-1.8c0-0.3,0.2-0.8,0.8-1.2s0.8-0.9,0.9-1.2c0-0.3-0.3-0.7-0.9-1.1
	c-0.6-0.4-1.3-0.7-2-0.9c-0.7-0.2-1.4-0.3-1.9-0.3c-1.2,0-2.6,0.5-4.2,1.5c-1.6,1-2.7,1.9-3.3,2.8s-1,1.6-1,2.3
	c0,0.8,0.2,1.6,0.7,2.4c0.4,0.8,0.7,1.7,0.8,2.6c0.1,1.7,0.6,2.8,1.5,3.3s2,0.8,3.2,0.8l5.7-0.3c1.2,0,2,0.2,2.3,0.7
	c0.3,0.4,0.4,0.9,0.5,1.2s0.1,0.6,0.1,0.8c0,0.6-0.6,0.8-1.7,0.8h-1.7c-0.8,0-1.4,0.2-1.8,0.7s-0.6,1.3-0.6,2.7
	c0,2.1,0.3,5.7,1,10.7c1.2,9.5,2.7,29,4.4,58.7c0.1,1.9,1.1,2.8,2.8,2.8l2.7-0.2c1.6,0,2.3,0.7,2.3,2.2c0,0.4-0.1,0.8-0.2,1
	c-0.2,0.2-0.6,0.4-1.2,0.4c-0.7,0.1-5.6,0.1-14.7,0.1C715,137.1,710,137,709.2,137L709.2,137z"/>
<path class="st2" d="M136.6,104.7c-0.4-1.5-2.5-5.4-2.7-7c-0.2-1.2-1.4-2.2-1.8-3.2c-0.5-2.1-0.1-4.3-1.1-6.4
	c-0.9-2.2-1.8-4.7-2.8-6.8c-0.9-2-1.8-4.4-2.8-6.3c-0.9-1.6-2.5-2.8-3.7-4.3c-2.6-3.5-5.1-7.3-8-10.6c-1-1.1-1.8-1.9-2.8-3
	c-0.1-0.1-0.9-0.6-1-0.7c-0.6-0.5-0.6,0.3-1.2,0.7c-1.4,0.9-2.7,2-3.8,3.1c-2.5,2.4-4.4,5.2-6.7,7.8c-1.8,2.1-3.2,4.5-4.9,6.8
	c-0.9,1.2-1.5,2.5-2.3,3.8c-1.1,1.7-2.1,3.4-2.8,5.2c-1.2,3.1-2.6,6.1-4,9.1c-1.6,3.6-3.1,7.3-4.6,11c-0.4,1-0.5,1.9-0.3,2.9
	c0.6,3.3,1.6,6.4,2.8,9.5c2.9,7.5,6.1,14.8,9.6,22.1c1.8,3.8,6,11,8.2,14.6C117.9,142.9,129.8,124.3,136.6,104.7L136.6,104.7z
	 M90.8,103.1c-0.4,1.2-0.8,2.4-1.3,3.5c-0.3,0.7-0.8,1.2-1.5,1.6c-0.4,0.3-0.7,0-1.2-0.3c-0.5-0.3-0.3-0.3-0.3-1
	c0.2-1,0.6-1.8,1.2-2.8c0.3-0.6,0.5-1.2,0.9-1.7c0.4-0.6,0.7-0.9,1.4-0.9c0.5,0,0.7,0,0.8,0.5C91,102.4,90.9,102.7,90.8,103.1
	L90.8,103.1z M106.1,78.5c-3.3,4.5-6.6,9-9.3,13.9c-0.3,0.5-0.6,1.1-0.9,1.7c-0.2,0.3-0.3,0.5-0.5,0.8c-0.5,0.6-0.8,0.1-1.4-0.4
	c-0.5-0.4-0.3-0.6-0.2-1.2c0.4-2.9,0.8-5.7,1.8-8.5c0.3-0.8,0.5-1.6,0.7-2.4c0.7-2.8,1.9-5,3.3-7.5c0.8-1.4,1.7-2.9,2.7-4.1
	c1.4-1.6,2.8-2.8,5-3.2c1.1-0.2,2,0.3,2.3,1.2c0.2,0.6,0.2,1.2,0.2,1.7c0,0.9-0.2,1.8-0.6,2.7C108.5,75.2,107.4,76.9,106.1,78.5
	L106.1,78.5z"/>
<path class="st3" d="M128.2,81.3c2.1,21.2-10.6,64.2-28.6,70.7c0.5,0.9,0.1,1.6,0.7,2.4c1.6,2.4,2.1,2.2,3.9,4.5
	c0.2,0.3,0.8,1,1.5,1.2c0.5,0.1,0.6,0,1.1-0.4c1.5-1.1,4.3-4.6,5.8-6.5c3.5-4.4,6.4-8.9,9.5-13.6c4.3-6.8,8.2-13.9,10.8-21.4
	c0.8-2.4,1.6-5.1,2.1-7.6c0.4-2.1,0.3-4.3,0.6-6.4c0-0.3,0.1-0.9,0-1.2C135.5,103,128.2,81.5,128.2,81.3L128.2,81.3z"/>
<path class="st0" d="M141.8,101.9c0-0.4,0-1.8-0.2-2.5c-0.5-3.1-0.7-6-1.6-9c-2.1-7.1-5.2-14.3-9.2-20.7c-2.2-3.6-5.4-7.6-8-11
	c-2.8-3.6-7.3-8.3-11.5-10.2c-1-0.5-2.4-0.8-3.5-0.4c-0.9,0.5-1.3,0.7-2.7,1.5c-3.3,2.5-6.1,4.9-8.6,8c-2.9,3.7-6.4,8.1-9.4,12.3
	c-3.4,5.8-6.9,11.8-9.8,17.9c-2.2,4.5-3,7.4-4.3,12.1c-0.2,0.6-0.5,1.7-1,4c0.2,1.3,0,3.1,0.3,4.4c0.4,3.5,2.5,8.7,3.5,12
	c3.9,9.9,8.8,19.2,13.7,28.8c2.4,4.6,4.9,8.6,8,12.7c1.6,2.1,2.3,2.8,4.2,4.6c1.3,0.9,2.5,2,3.9,1.5c1.6-0.4,3.7-2.5,4.9-3.4
	c1.5-1.5,2.8-2.6,4.3-4.2c8.6-8.8,15.1-19.6,19.6-30.6c2.4-5.9,4.3-12.3,5.7-18.5c0.3-1.5,0.8-3.3,1.1-4.9
	C141.7,104.8,141.9,103.7,141.8,101.9L141.8,101.9z M97.9,149.3c-2.2-3.6-4-7.3-5.8-11c-3.5-7.2-6.7-14.6-9.6-22.1
	c-1.2-3.1-2.2-6.3-2.8-9.5c-0.2-1-0.1-1.9,0.3-2.9c1.5-3.7,1.6-4.2,3.2-7.8c1.3-3,2.8-5.9,4.2-9.2c0.7-1.9,2.2-4.8,4.1-8.3
	c0.8-1.2,1.5-2.6,2.3-3.8c1.7-2.2,3.1-4.7,4.9-6.8c2.2-2.6,4.2-5.4,6.7-7.8c1.2-1.2,2.4-2.2,3.8-3.1c0.7-0.4,0.7-0.4,1.4,0.1
	c0.1,0.1,0.2,0.2,0.3,0.3c1,1.1,1.9,2.2,2.9,3.3c2.8,3.2,5.2,6.8,7.8,10.3c1,1.3,1.9,2.7,2.7,4.2c1.2,2.2,2.5,4.3,3.6,6.6
	c1,2.2,1.7,4.4,2.6,6.7c0.8,2,1.4,4.1,2.3,6.1c0.4,1.2,0.8,2.2,1.1,3.2c0.3,1.6,0.5,2.3,1,4c0,0.1,0,0.7,0,1.2c0,0.7,0,1.4-0.1,1.6
	c-0.2,2.2-0.4,3.6-0.9,5.8c-0.2,0.9-0.4,1.8-0.7,2.7c-2.9,9-6.4,17.7-11.5,25.8c-3,4.7-6.3,9.3-9.8,13.7c-2,2.5-4.1,4.9-6.3,7.3
	c-0.5-0.1-0.7-0.4-0.9-0.7c-1.8-2.3-3.3-4.8-4.9-7.2C99,151.1,98.4,150.2,97.9,149.3"/>
<path class="st0" d="M110.2,70.6c0,0.9-0.2,1.8-0.6,2.7c-0.8,1.9-1.9,3.6-3.2,5.3c-3.3,4.5-6.6,9-9.3,13.9c-0.3,0.5-0.6,1.1-0.9,1.7
	c-0.2,0.3-0.3,0.5-0.5,0.8c-0.5,0.6-1,0.5-1.6,0.1c-0.5-0.4-0.7-1-0.6-1.6c0.4-2.9,0.9-5.8,1.8-8.6c0.3-0.8,0.5-1.6,0.7-2.4
	c0.7-2.8,2-5.3,3.4-7.8c0.8-1.4,1.7-2.7,2.8-3.9c1.4-1.6,3-2.8,5.2-3.2c1.1-0.2,2.2,0.4,2.5,1.4C110.2,69.4,110.2,70,110.2,70.6
	L110.2,70.6z M107.9,68.7c-1.6,0.5-2.9,1.4-3.9,2.6c-2.1,2.7-3.9,5.6-5.5,8.7c-0.2,0.3-0.3,0.7-0.5,1c-0.7,1.8-1.2,3.7-1.8,5.6
	c-0.5,1.8-0.8,3.7-1.1,5.6c-0.1,0.6-0.2,1.1-0.3,1.8c0.4-0.2,0.5-0.5,0.6-0.8c0.6-1.6,1.3-3.1,2.1-4.5c2.2-3.9,4.9-7.5,7.5-11.1
	c1.1-1.5,2.2-3.1,3-4.8c0.4-0.8,0.5-1.6,0.6-2.4C108.8,69.5,108.6,69,107.9,68.7L107.9,68.7z"/>
<path class="st0" d="M86.3,106.9c0.2-1,0.6-2.1,1.1-3.1c0.3-0.6,0.7-1.1,1.2-1.7c0.4-0.6,1-0.8,1.7-0.8c0.5,0,0.8,0.2,0.9,0.6
	c0.1,0.4,0,0.8-0.1,1.1c-0.4,1.2-0.8,2.4-1.3,3.5c-0.3,0.7-0.8,1.2-1.5,1.6c-0.4,0.3-0.9,0.4-1.4,0.2
	C86.4,108.1,86.3,107.7,86.3,106.9L86.3,106.9z M87.6,107.2c0.5-0.3,0.9-0.6,1.1-1c0.7-1.2,1.2-2.5,1.5-3.9c0,0,0-0.1-0.1-0.3
	C88.7,103.6,88.1,105.3,87.6,107.2"/>
</svg>
